<?xml version="1.0" standalone="no"?>
<!DOCTYPE svg PUBLIC "-//W3C//DTD SVG 20010904//EN"
 "http://www.w3.org/TR/2001/REC-SVG-20010904/DTD/svg10.dtd">
<svg version="1.0" xmlns="http://www.w3.org/2000/svg"
 width="360.000000pt" height="360.000000pt" viewBox="0 0 360.000000 360.000000"
 preserveAspectRatio="xMidYMid meet">
<metadata>
Created by potrace 1.14, written by Peter Selinger 2001-2017
</metadata>
<g transform="translate(0.000000,360.000000) scale(0.100000,-0.100000)"
fill="#000000" stroke="none">
<path d="M1411 2969 c-36 -14 -93 -51 -88 -56 3 -2 21 7 42 21 55 38 133 46
210 22 11 -3 7 0 -10 8 -34 17 -118 20 -154 5z"/>
<path d="M1945 2970 c-12 -4 7 -6 45 -3 36 3 67 7 69 9 9 8 -95 2 -114 -6z"/>
<path d="M1885 2940 c-16 -11 -25 -20 -20 -20 10 0 64 39 55 40 -3 0 -18 -9
-35 -20z"/>
<path d="M2116 2946 c10 -8 21 -12 24 -10 5 6 -21 24 -34 24 -6 0 -1 -6 10
-14z"/>
<path d="M1600 2949 c0 -3 21 -27 46 -53 25 -27 41 -40 36 -30 -11 20 -82 92
-82 83z"/>
<path d="M2164 2911 c11 -12 30 -38 42 -59 13 -20 24 -32 24 -26 0 14 -54 89
-72 100 -7 4 -4 -2 6 -15z"/>
<path d="M1830 2895 c-7 -9 -8 -15 -2 -15 5 0 12 7 16 15 3 8 4 15 2 15 -2 0
-9 -7 -16 -15z"/>
<path d="M1298 2883 c-22 -26 -41 -64 -34 -71 3 -3 6 -1 6 5 0 6 11 27 25 47
26 39 28 47 3 19z"/>
<path d="M1801 2853 c-1 -6 -4 -20 -7 -30 -5 -17 -5 -17 6 0 6 10 9 23 6 30
-3 9 -5 9 -5 0z"/>
<path d="M1411 2824 c-85 -72 -16 -210 95 -189 81 15 114 127 55 186 -40 39
-105 41 -150 3z"/>
<path d="M1944 2832 c-71 -57 -51 -167 35 -193 98 -29 174 68 126 161 -8 16
-24 34 -34 40 -31 16 -103 12 -127 -8z"/>
<path d="M1690 2835 c0 -5 5 -17 10 -25 5 -8 10 -10 10 -5 0 6 -5 17 -10 25
-5 8 -10 11 -10 5z"/>
<path d="M2232 2753 c-1 -34 -5 -70 -8 -80 -5 -17 -5 -17 6 -1 6 10 9 45 7 80
l-3 63 -2 -62z"/>
<path d="M1251 2759 c-1 -46 14 -105 31 -124 5 -5 4 4 -3 20 -6 17 -15 57 -19
90 -7 58 -7 59 -9 14z"/>
<path d="M1782 2750 c-2 -62 20 -119 62 -163 31 -31 97 -67 123 -67 10 1 0 7
-21 15 -93 33 -146 102 -156 202 l-7 68 -1 -55z"/>
<path d="M1712 2745 c0 -16 2 -22 5 -12 2 9 2 23 0 30 -3 6 -5 -1 -5 -18z"/>
<path d="M1697 2679 c-9 -37 -62 -100 -105 -126 -20 -13 -32 -23 -25 -23 41 0
152 128 140 163 -2 6 -7 0 -10 -14z"/>
<path d="M2183 2610 c-28 -40 -94 -79 -135 -81 -13 0 -32 -4 -43 -9 -33 -15
66 1 102 16 36 16 72 47 98 87 27 42 10 32 -22 -13z"/>
<path d="M1316 2589 c28 -30 111 -76 120 -66 2 2 -16 12 -40 21 -25 10 -57 31
-70 47 -14 16 -28 29 -32 29 -4 0 5 -14 22 -31z"/>
<path d="M2780 2571 c0 -6 4 -13 10 -16 6 -3 7 1 4 9 -7 18 -14 21 -14 7z"/>
<path d="M1503 2523 c9 -2 25 -2 35 0 9 3 1 5 -18 5 -19 0 -27 -2 -17 -5z"/>
<path d="M2837 2468 c8 -44 13 -48 13 -10 0 17 -4 34 -10 37 -6 4 -7 -6 -3
-27z"/>
<path d="M1200 2459 c0 -8 147 -9 518 -4 284 4 519 9 521 11 2 2 -230 4 -517
4 -370 0 -522 -3 -522 -11z"/>
<path d="M2741 2435 c0 -16 4 -37 9 -45 8 -12 10 -11 9 5 -1 11 -5 31 -9 45
-8 24 -8 24 -9 -5z"/>
<path d="M2631 2398 c-1 -20 4 -40 9 -43 12 -7 12 19 0 55 -7 22 -8 21 -9 -12z"/>
<path d="M1257 2314 c-14 -15 -6 -34 14 -34 14 0 19 5 17 17 -3 18 -20 27 -31
17z"/>
<path d="M2256 2305 c-3 -9 1 -18 10 -22 19 -7 39 11 30 26 -10 16 -33 13 -40
-4z"/>
<path d="M2750 2129 c0 -5 9 -9 20 -9 11 0 20 2 20 4 0 2 -9 6 -20 9 -11 3
-20 1 -20 -4z"/>
<path d="M1655 2073 c-303 -32 -472 -129 -571 -328 -54 -110 -66 -195 -59
-430 5 -136 3 -195 -4 -186 -8 12 -11 10 -16 -11 -4 -14 -5 -38 -3 -53 l3 -28
123 1 124 0 -9 -37 c-4 -20 -8 -79 -8 -131 l0 -95 119 3 c66 2 128 8 139 13
16 9 18 21 15 95 -2 46 0 84 5 84 4 0 7 -38 7 -85 l0 -85 33 0 c17 0 37 4 42
8 6 4 12 39 14 77 1 39 6 76 10 83 5 8 6 25 3 38 l-4 24 -149 0 c-173 0 -199
7 -199 56 0 22 6 37 18 43 11 6 198 11 468 13 247 2 431 5 409 9 -33 4 -25 6
45 12 47 4 109 4 138 -1 31 -5 55 -5 58 0 3 5 18 7 32 5 15 -2 38 2 52 10 23
12 21 13 -35 15 -50 1 -53 2 -17 5 l42 4 2 62 1 62 7 -65 7 -65 1 73 c1 42 -2
72 -8 72 -5 0 -10 5 -10 11 0 6 7 9 15 5 20 -7 19 -1 -2 20 -13 13 -14 19 -5
22 16 5 16 32 0 32 -9 0 -10 3 -2 8 15 10 27 119 14 127 -6 3 -11 -6 -12 -22
-1 -15 -4 13 -7 62 -6 95 -3 121 11 89 8 -18 8 -18 5 1 -1 11 -9 20 -16 20 -8
0 -16 10 -17 23 -2 12 0 22 6 22 5 0 -3 20 -18 45 -26 43 -42 57 -42 34 0 -5
-5 -7 -11 -3 -8 4 -7 9 2 15 11 6 11 11 1 21 -9 9 -12 9 -12 -1 0 -8 -7 -10
-22 -6 -17 6 -20 4 -15 -9 4 -9 2 -16 -3 -16 -14 0 -24 22 -12 29 15 9 9 54
-8 58 -13 4 -13 3 0 -7 13 -10 12 -11 -3 -6 -10 3 -21 6 -23 6 -3 0 -3 4 0 9
3 5 -1 14 -9 21 -12 10 -21 10 -41 1 -14 -6 -33 -11 -43 -11 -23 0 -55 35 -48
54 11 28 -133 64 -292 72 -58 2 -124 6 -146 8 -22 1 -53 1 -70 -1z m438 -70
c-7 -2 -19 -2 -25 0 -7 3 -2 5 12 5 14 0 19 -2 13 -5z m194 -69 c-3 -3 -12 -4
-19 -1 -8 3 -5 6 6 6 11 1 17 -2 13 -5z m-145 -106 c-9 -9 -15 -9 -24 0 -9 9
-7 12 12 12 19 0 21 -3 12 -12z m91 5 c-7 -2 -13 -14 -13 -26 0 -14 -3 -18
-10 -11 -15 15 -2 44 19 43 10 0 11 -2 4 -6z m-78 -36 c38 -22 39 -23 36 -75
-2 -40 1 -53 13 -58 12 -5 16 -21 16 -69 0 -35 5 -67 10 -70 6 -3 9 -18 9 -33
l-1 -27 -8 30 -8 30 -1 -35 c-1 -19 -4 -45 -7 -58 -4 -13 -3 -22 2 -21 26 5
26 -4 -1 -26 -16 -13 -24 -24 -17 -25 6 0 12 5 12 11 0 5 4 8 9 4 5 -3 -1 -17
-15 -32 -21 -23 -34 -27 -87 -29 l-62 -3 48 9 c27 5 52 12 55 16 4 4 -4 4 -18
1 -14 -4 -189 -1 -389 5 -354 12 -365 13 -390 34 l-26 22 3 164 c2 90 7 175
13 189 16 42 47 49 217 50 86 1 225 5 307 9 83 3 170 7 195 8 31 1 58 -6 85
-21z m305 -29 c0 -5 -4 -8 -10 -8 -5 0 -10 7 -10 15 0 8 -4 15 -10 15 -5 0
-10 8 -10 18 0 14 4 12 20 -8 11 -14 20 -28 20 -32z m-40 7 c7 -9 8 -15 2 -15
-5 0 -12 7 -16 15 -3 8 -4 15 -2 15 2 0 9 -7 16 -15z m10 -40 c0 4 7 2 15 -5
8 -7 15 -21 15 -32 0 -28 -34 -19 -38 10 -2 12 -8 22 -13 22 -5 0 -9 5 -9 11
0 8 5 8 15 -1 8 -7 15 -9 15 -5z m-223 -42 c-3 -10 -5 -2 -5 17 0 19 2 27 5
18 2 -10 2 -26 0 -35z m20 0 c-3 -10 -5 -4 -5 12 0 17 2 24 5 18 2 -7 2 -21 0
-30z m213 -53 c0 -11 -4 -20 -10 -20 -5 0 -10 9 -10 20 0 11 5 20 10 20 6 0
10 -9 10 -20z m-203 -62 c-3 -8 -6 -5 -6 6 -1 11 2 17 5 13 3 -3 4 -12 1 -19z
m203 -218 c0 -47 -4 -80 -10 -80 -6 0 -10 33 -10 80 0 47 4 80 10 80 6 0 10
-33 10 -80z m17 -62 c-2 -13 -4 -5 -4 17 -1 22 1 32 4 23 2 -10 2 -28 0 -40z
m-307 -7 c-9 -5 -40 -6 -70 -1 l-55 8 70 0 c45 1 65 -2 55 -7z m78 -8 c-10 -2
-28 -2 -40 0 -13 2 -5 4 17 4 22 1 32 -1 23 -4z m212 -43 c0 -11 -4 -20 -10
-20 -5 0 -10 9 -10 20 0 11 5 20 10 20 6 0 10 -9 10 -20z m17 -12 c-3 -7 -5
-2 -5 12 0 14 2 19 5 13 2 -7 2 -19 0 -25z m-377 -38 c0 -5 -12 -10 -27 -9
-25 0 -26 1 -8 9 27 12 35 12 35 0z m150 0 c0 -10 -129 -30 -182 -29 -34 1
-26 4 37 13 67 10 74 13 45 18 -22 3 -11 5 33 5 37 1 67 -3 67 -7z m150 0 c0
-5 -4 -10 -10 -10 -5 0 -10 5 -10 10 0 6 5 10 10 10 6 0 10 -4 10 -10z m-77
-7 c-13 -2 -33 -2 -45 0 -13 2 -3 4 22 4 25 0 35 -2 23 -4z m-734 -199 c2 -2
-12 -4 -33 -4 -22 0 -35 4 -31 10 5 9 52 4 64 -6z m36 -14 c-3 -5 -16 -10 -28
-9 -20 1 -20 2 3 9 14 4 26 8 28 9 2 1 0 -3 -3 -9z m-5 -78 c0 -4 -10 -9 -22
-9 -18 -2 -20 0 -8 7 18 12 30 13 30 2z"/>
<path d="M1817 1605 c-27 -42 -60 -83 -73 -91 -30 -20 -32 -60 -4 -69 26 -8
50 10 50 38 0 11 20 57 45 103 25 45 45 85 45 88 0 20 -21 -3 -63 -69z"/>
<path d="M1915 1636 c-15 -23 -14 -25 37 -75 44 -42 55 -48 64 -36 6 8 19 15
28 15 22 0 20 12 -5 44 -19 24 -90 76 -104 76 -2 0 -12 -11 -20 -24z"/>
<path d="M2203 1565 c0 -22 2 -30 4 -17 2 12 2 30 0 40 -3 9 -5 -1 -4 -23z"/>
<path d="M2201 1504 c0 -11 3 -14 6 -6 3 7 2 16 -1 19 -3 4 -6 -2 -5 -13z"/>
<path d="M2740 2039 c0 -5 9 -9 20 -9 11 0 20 2 20 4 0 2 -9 6 -20 9 -11 3
-20 1 -20 -4z"/>
<path d="M2170 1980 c0 -17 41 -32 68 -25 26 6 26 7 8 21 -27 19 -45 18 -20
-2 18 -14 18 -15 -6 -8 -14 4 -26 11 -28 15 -5 12 -22 11 -22 -1z"/>
<path d="M2360 1890 c0 -5 5 -10 10 -10 6 0 10 5 10 10 0 6 -4 10 -10 10 -5 0
-10 -4 -10 -10z"/>
<path d="M2700 1850 c8 -5 20 -10 25 -10 6 0 3 5 -5 10 -8 5 -19 10 -25 10 -5
0 -3 -5 5 -10z"/>
<path d="M2620 1711 c0 -5 7 -12 16 -15 14 -5 15 -4 4 9 -14 17 -20 19 -20 6z"/>
<path d="M2596 1667 c3 -10 9 -15 12 -12 3 3 0 11 -7 18 -10 9 -11 8 -5 -6z"/>
<path d="M2493 1635 c0 -22 2 -30 4 -17 2 12 2 30 0 40 -3 9 -5 -1 -4 -23z"/>
<path d="M880 1406 c0 -2 9 -6 20 -9 11 -3 18 -1 14 4 -5 9 -34 13 -34 5z"/>
<path d="M860 1326 c0 -2 7 -6 15 -10 8 -3 15 -1 15 4 0 6 -7 10 -15 10 -8 0
-15 -2 -15 -4z"/>
<path d="M830 1130 c0 -5 5 -10 11 -10 5 0 7 5 4 10 -3 6 -8 10 -11 10 -2 0
-4 -4 -4 -10z"/>
<path d="M800 1046 c0 -2 9 -6 20 -9 11 -3 20 -1 20 4 0 5 -9 9 -20 9 -11 0
-20 -2 -20 -4z"/>
<path d="M1976 1008 c-3 -13 -6 -70 -6 -127 l0 -103 128 5 c70 3 151 10 179
15 29 4 56 5 60 1 5 -5 7 31 5 79 -4 84 -10 101 -40 102 -8 0 -10 -5 -6 -12 6
-10 4 -10 -8 0 -8 7 -23 10 -32 6 -9 -4 -16 -1 -16 6 0 10 15 11 60 7 60 -7
66 -4 54 27 -5 14 -31 16 -189 16 -181 0 -183 0 -189 -22z m310 -62 c8 -8 14
-18 14 -22 0 -5 -5 -3 -12 4 -9 9 -16 8 -29 -3 -15 -14 -16 -14 -14 7 1 13 3
24 4 26 3 7 24 0 37 -12z m42 -58 c-1 -48 -3 -59 -5 -30 -3 31 -9 42 -21 43
-15 1 -15 2 1 6 10 3 17 14 17 29 0 13 2 24 5 24 3 0 4 -33 3 -72z m-48 22 c0
-5 -4 -10 -10 -10 -5 0 -10 5 -10 10 0 6 5 10 10 10 6 0 10 -4 10 -10z m30
-74 c0 -11 -19 -15 -25 -6 -3 5 1 10 9 10 9 0 16 -2 16 -4z"/>
<path d="M955 789 c10 -47 22 -57 17 -14 -2 19 -9 38 -14 41 -7 4 -8 -6 -3
-27z"/>
<path d="M841 785 c-2 -24 21 -84 37 -96 14 -11 15 -11 5 1 -7 8 -13 21 -13
30 -1 18 -28 80 -29 65z"/>
<path d="M751 720 c0 -14 4 -32 9 -40 8 -12 10 -12 9 5 0 11 -4 29 -9 40 -8
18 -9 18 -9 -5z"/>
<path d="M1017 679 c7 -7 15 -10 18 -7 3 3 -2 9 -12 12 -14 6 -15 5 -6 -5z"/>
<path d="M900 656 c0 -2 8 -10 18 -17 15 -13 16 -12 3 4 -13 16 -21 21 -21 13z"/>
<path d="M2055 644 c-45 -24 -75 -55 -96 -97 -17 -32 -19 -55 -17 -150 l3
-112 40 -3 c30 -2 36 0 25 8 -10 6 -11 10 -3 10 7 0 12 3 12 8 -1 4 -1 44 0
89 l1 82 37 10 c38 11 38 11 108 -58 l70 -69 35 13 c25 10 29 14 15 15 -17 2
-16 3 5 9 14 4 27 3 28 -1 2 -5 11 -3 20 4 8 7 17 12 19 11 11 -9 33 -1 33 12
0 8 5 15 10 15 6 0 10 12 10 26 0 14 -4 23 -10 19 -5 -3 -10 -1 -10 4 0 6 -20
11 -45 11 -42 0 -45 2 -45 26 0 19 4 25 14 21 15 -6 66 13 66 24 0 3 -9 14
-20 24 -25 22 -27 13 -2 -11 16 -17 16 -18 -3 -10 -46 19 -58 19 -71 1 -13
-18 -14 -17 -14 9 0 23 3 26 21 21 16 -5 20 -3 17 6 -3 8 -12 14 -22 14 -9 0
-21 7 -26 15 -14 23 -165 26 -205 4z"/>
<path d="M1311 636 c-43 -15 -98 -78 -111 -127 -6 -21 -10 -81 -9 -133 l2 -96
46 1 c35 0 41 2 26 9 -13 6 -15 9 -5 9 12 1 15 17 13 90 l-3 88 42 7 c41 7 43
6 109 -60 61 -60 70 -66 96 -59 15 4 22 10 16 12 -7 3 -13 9 -13 14 0 6 8 6
19 -1 25 -13 34 -13 26 0 -4 6 7 10 24 10 31 0 31 0 33 58 l1 57 7 -65 c6 -57
7 -60 8 -20 2 33 5 41 12 30 8 -13 10 -12 10 3 0 9 -3 17 -8 17 -9 0 -33 68
-33 93 0 21 -34 44 -77 53 -18 4 -32 10 -32 15 0 13 -160 9 -199 -5z m256 -28
c15 -7 31 -17 35 -23 11 -15 -33 -28 -46 -14 -8 9 -7 10 7 6 30 -11 18 9 -15
26 -38 18 -22 23 19 5z m40 -100 c-2 -13 -4 -5 -4 17 -1 22 1 32 4 23 2 -10 2
-28 0 -40z m0 -75 c-3 -10 -5 -4 -5 12 0 17 2 24 5 18 2 -7 2 -21 0 -30z"/>
<path d="M1636 557 c3 -10 9 -15 12 -12 3 3 0 11 -7 18 -10 9 -11 8 -5 -6z"/>
<path d="M2350 540 c-8 -5 -11 -13 -6 -17 5 -4 11 -3 13 4 2 7 11 9 19 6 8 -3
14 0 14 6 0 13 -20 14 -40 1z"/>
<path d="M1651 514 c0 -11 3 -14 6 -6 3 7 2 16 -1 19 -3 4 -6 -2 -5 -13z"/>
<path d="M1651 414 c0 -11 3 -14 6 -6 3 7 2 16 -1 19 -3 4 -6 -2 -5 -13z"/>
</g>
</svg>
